<svg width="116" height="40" viewBox="0 0 116 40" fill="none" xmlns="http://www.w3.org/2000/svg">
<path fill-rule="evenodd" clip-rule="evenodd" d="M19.9705 28.8142C20.1157 27.9658 20.5003 27.1721 21.0822 26.5197C21.6641 25.8673 22.421 25.3814 23.2703 25.1148C24.1196 24.8483 25.0286 24.8114 25.8982 25.0083C26.7678 25.2051 27.5644 25.6281 28.2013 26.231C31.1413 25.4593 33.8462 24.2361 35.9199 22.8453C40.7951 19.6039 42.1967 15.508 35.0755 14.3555L34.4994 8.54969H27.8904V7.18174C27.8904 5.27702 27.1043 3.45032 25.7051 2.10348C24.3059 0.756645 22.4082 0 20.4294 0C18.4506 0 16.5528 0.756645 15.1536 2.10348C13.7544 3.45032 12.9683 5.27702 12.9683 7.18174V8.54969H6.36113L5.36633 18.4821C7.02434 17.6694 8.83118 17.0931 10.7868 16.7534C11.2199 15.8497 11.9407 15.1022 12.8448 14.6194C13.7489 14.1366 14.7893 13.9436 15.8151 14.0684C16.8409 14.1931 17.7987 14.6291 18.5496 15.3132C19.3006 15.9972 19.8057 16.8938 19.9916 17.8728C20.1775 18.8518 20.0346 19.8623 19.5836 20.7579C19.1326 21.6534 18.397 22.3874 17.4834 22.8534C16.5698 23.3193 15.5258 23.4931 14.5027 23.3494C13.4796 23.2057 12.5307 22.752 11.7935 22.0542C9.15133 22.753 6.69155 23.8126 4.71437 25.0272C-0.385197 28.157 -2.29902 32.2819 3.84925 33.7126L3.22868 40H37.6324L36.5073 28.7315C34.3602 30.1211 31.9229 31.0473 29.218 31.5198C28.7284 32.5553 27.8648 33.3842 26.7877 33.8525C25.7106 34.3208 24.4935 34.3965 23.3628 34.0656C22.232 33.7347 21.2646 33.0197 20.6406 32.0536C20.0166 31.0875 19.7785 29.9361 19.9705 28.8136V28.8142ZM35.0767 14.3555L35.1951 15.5593C38.9476 16.4752 38.3702 18.6161 35.6866 20.5403L35.0767 14.3555ZM4.44732 27.7848L3.96768 32.6114C1.14373 31.5928 1.91352 29.5654 4.44732 27.7848ZM14.0934 21.1884C14.6026 21.4036 15.1667 21.4687 15.7143 21.3754C16.2619 21.2821 16.7685 21.0346 17.1701 20.6643C17.5716 20.294 17.8501 19.8173 17.9703 19.2947C18.0905 18.772 18.0471 18.2268 17.8455 17.7279C17.6439 17.229 17.2931 16.7988 16.8376 16.4918C16.3821 16.1847 15.8422 16.0145 15.2862 16.0027C14.7302 15.9909 14.1831 16.138 13.7139 16.4254C13.2447 16.7128 12.8746 17.1276 12.6503 17.6175C12.5004 17.943 12.4188 18.2939 12.4103 18.6498C12.4017 19.0058 12.4664 19.3599 12.6005 19.6918C12.7346 20.0236 12.9355 20.3267 13.1917 20.5835C13.4479 20.8404 13.7544 21.0459 14.0934 21.1884ZM25.9144 27.0957C25.5764 26.9503 25.212 26.8707 24.8419 26.8614C24.4719 26.852 24.1035 26.9132 23.7581 27.0413C23.4127 27.1694 23.097 27.362 22.8291 27.6079C22.5612 27.8538 22.3465 28.1483 22.1972 28.4743C22.0479 28.8004 21.967 29.1516 21.9592 29.5079C21.9514 29.8641 22.0168 30.2183 22.1516 30.5502C22.2865 30.882 22.4881 31.1849 22.7449 31.4415C23.0018 31.6981 23.3088 31.9033 23.6483 32.0454C24.3294 32.3304 25.1001 32.3441 25.7918 32.0837C26.4835 31.8233 27.0399 31.3099 27.3395 30.6557C27.639 30.0015 27.6572 29.2597 27.3902 28.5926C27.1231 27.9255 26.5925 27.3873 25.9144 27.0957ZM25.6154 8.54969H15.2451V7.18174C15.2597 5.86727 15.8124 4.61142 16.7832 3.68688C17.7541 2.76234 19.0646 2.24377 20.4303 2.24377C21.7959 2.24377 23.1064 2.76234 24.0773 3.68688C25.0481 4.61142 25.6008 5.86727 25.6154 7.18174V8.54969Z" fill="url(#paint0_linear)"/>
<path fill-rule="evenodd" clip-rule="evenodd" d="M29.4854 8.54969H27.8902V7.18174C27.8902 5.27702 27.1041 3.45032 25.7049 2.10348C24.3057 0.756645 22.4079 0 20.4291 0C18.4503 0 16.5526 0.756645 15.1534 2.10348C13.7541 3.45032 12.9681 5.27702 12.9681 7.18174V8.54969H6.3609L5.36609 18.4821C7.0241 17.6694 8.83094 17.0931 10.7866 16.7534C11.116 16.0621 11.615 15.4584 12.2407 14.994C12.8664 14.5297 13.6 14.2188 14.3783 14.0881C15.1566 13.9574 15.9562 14.0108 16.7083 14.2438C17.4604 14.4767 18.1424 14.8822 18.6954 15.4252C19.2485 15.9683 19.6561 16.6326 19.8831 17.361C20.1101 18.0894 20.1497 18.8601 19.9985 19.6065C19.8472 20.3529 19.5097 21.0527 19.015 21.6457C18.5203 22.2386 17.8832 22.7068 17.1587 23.0101C24.1608 21.8576 29.4854 16.0022 29.4854 8.93157V8.54969ZM13.7799 23.1982C13.0316 22.9774 12.3496 22.5863 11.7915 22.0582C11.2355 22.2024 10.68 22.3671 10.1335 22.5524C11.3167 22.9112 12.5415 23.1281 13.7799 23.1982ZM14.0932 21.1884C14.6024 21.4036 15.1664 21.4687 15.714 21.3754C16.2617 21.2821 16.7683 21.0346 17.1698 20.6643C17.5714 20.294 17.8499 19.8173 17.9701 19.2947C18.0903 18.772 18.0469 18.2268 17.8452 17.7279C17.6436 17.229 17.2929 16.7988 16.8374 16.4918C16.3819 16.1847 15.842 16.0145 15.286 16.0027C14.73 15.9909 14.1828 16.138 13.7137 16.4254C13.2445 16.7128 12.8744 17.1276 12.6501 17.6175C12.5002 17.943 12.4186 18.2939 12.41 18.6498C12.4015 19.0058 12.4661 19.3599 12.6002 19.6918C12.7343 20.0236 12.9353 20.3267 13.1915 20.5835C13.4477 20.8404 13.7541 21.0459 14.0932 21.1884ZM25.6152 8.54969H15.2449V7.18174C15.2595 5.86727 15.8122 4.61142 16.783 3.68688C17.7538 2.76234 19.0644 2.24377 20.43 2.24377C21.7957 2.24377 23.1062 2.76234 24.077 3.68688C25.0478 4.61142 25.6006 5.86727 25.6152 7.18174V8.54969Z" fill="#19B5FE"/>
<path fill-rule="evenodd" clip-rule="evenodd" d="M27.6355 25.7682C27.8362 25.9085 28.0256 26.0632 28.2022 26.231C31.1422 25.4593 33.8471 24.2361 35.9208 22.8453C40.7959 19.6039 42.1976 15.508 35.0764 14.3555L34.4991 8.54968H33.2698C33.4635 9.65477 33.5599 10.7736 33.5581 11.8943C33.5698 17.0913 31.4399 22.0806 27.6355 25.7682ZM1.17537 27.9392C-0.813056 30.3474 -0.492111 32.7037 3.84892 33.7126L3.22835 40H37.6321L36.507 28.7315C34.3599 30.1211 31.9226 31.0473 29.2177 31.5198C28.7889 32.4259 28.0719 33.1772 27.1704 33.6653C26.2688 34.1533 25.2294 34.3528 24.2024 34.2348C23.1753 34.1168 22.2138 33.6876 21.4569 33.0091C20.6999 32.3306 20.1867 31.438 19.9914 30.4603C17.7727 31.2278 15.4322 31.618 13.0746 31.6133C10.0221 31.6162 7.00753 30.9621 4.25158 29.6988L3.96735 32.6114C1.80601 31.8293 1.75272 30.4608 2.98202 29.061C2.36204 28.711 1.75272 28.3405 1.17537 27.9392ZM35.0764 14.3555L35.1948 15.5593C38.9473 16.4752 38.3699 18.6161 35.6863 20.5403L35.0764 14.3555ZM21.9686 29.668C21.9862 30.1448 22.1346 30.6087 22.3986 31.0125C22.6626 31.4164 23.033 31.7458 23.472 31.9673C23.911 32.1889 24.4031 32.2947 24.8984 32.274C25.3936 32.2533 25.8743 32.1069 26.2918 31.8496C26.7092 31.5923 27.0485 31.2332 27.2752 30.8089C27.502 30.3846 27.608 29.9101 27.5826 29.4336C27.5573 28.957 27.4014 28.4955 27.1308 28.0957C26.8602 27.6959 26.4846 27.3721 26.042 27.1572C24.7948 28.1498 23.427 28.9929 21.9686 29.668Z" fill="#004790"/>
<path fill-rule="evenodd" clip-rule="evenodd" d="M3.849 33.7126L3.96743 32.6114C1.14526 31.5928 1.91505 29.5654 4.44885 27.7848C6.37333 26.5399 8.71468 25.4492 11.4729 24.5125C14.7978 26.7047 20.9875 24.8625 20.1005 18.7084C20.0985 19.6339 19.8127 20.5382 19.2791 21.308C18.7455 22.0779 17.9877 22.679 17.1008 23.0361C16.2138 23.3933 15.237 23.4905 14.2929 23.3156C13.3487 23.1407 12.4792 22.7015 11.7933 22.0531C9.15109 22.753 6.69131 23.8126 4.71413 25.0272C-0.385442 28.157 -2.29926 32.2819 3.849 33.7126Z" fill="#002452"/>
<path fill-rule="evenodd" clip-rule="evenodd" d="M2.78965 31.9838C1.66754 31.1289 0.480281 29.8019 0.940379 28.2277C-0.780992 30.5327 -0.321487 32.7453 3.849 33.7126L3.96743 32.6114C3.46352 32.4261 3.06796 32.2204 2.78965 31.9838Z" fill="url(#paint1_linear)"/>
<path fill-rule="evenodd" clip-rule="evenodd" d="M36.7659 16.1361C38.5512 16.815 39.6632 18.3898 39.3121 19.6859C40.841 17.3399 39.9854 15.1478 35.0782 14.3555L35.1967 15.5593C35.8463 15.724 36.3579 15.9195 36.7659 16.1361Z" fill="url(#paint2_linear)"/>
<path fill-rule="evenodd" clip-rule="evenodd" d="M28.7156 24.4613C25.4227 21.8576 19.8204 23.9158 19.9275 29.0712C19.9365 28.9848 19.9508 28.899 19.9702 28.8142C20.1154 27.9658 20.5 27.1721 21.0819 26.5197C21.6638 25.8674 22.4207 25.3814 23.27 25.1148C24.1193 24.8483 25.0283 24.8114 25.8979 25.0083C26.7675 25.2051 27.5642 25.6281 28.201 26.231C31.141 25.4593 33.846 24.2361 35.9197 22.8454C37.4273 21.8371 38.6139 20.7461 39.3091 19.686C39.6644 18.3898 38.55 16.815 36.7629 16.1361C38.6767 17.206 37.9069 18.945 35.6828 20.5404C33.4303 22.5473 31.0783 23.5043 28.7156 24.4613Z" fill="#002452"/>
<path d="M49.792 20C49.6747 20 49.5733 19.9573 49.488 19.872C49.4027 19.7867 49.36 19.6853 49.36 19.568V12.24H46.704C46.5867 12.24 46.4853 12.1973 46.4 12.112C46.3147 12.0267 46.272 11.9253 46.272 11.808V9.232C46.272 9.11467 46.3147 9.01333 46.4 8.928C46.4853 8.84267 46.5867 8.8 46.704 8.8H56.08C56.1973 8.8 56.2987 8.84267 56.384 8.928C56.4693 9.01333 56.512 9.11467 56.512 9.232V11.808C56.512 11.9253 56.4693 12.0267 56.384 12.112C56.2987 12.1973 56.1973 12.24 56.08 12.24H53.424V19.568C53.424 19.6853 53.3813 19.7867 53.296 19.872C53.2107 19.9573 53.1093 20 52.992 20H49.792ZM58.0933 20C57.9759 20 57.8746 19.9573 57.7893 19.872C57.7039 19.7867 57.6613 19.6853 57.6613 19.568V9.232C57.6613 9.11467 57.7039 9.01333 57.7893 8.928C57.8746 8.84267 57.9759 8.8 58.0933 8.8H66.3013C66.4186 8.8 66.5199 8.84267 66.6053 8.928C66.6906 9.01333 66.7333 9.11467 66.7333 9.232V11.488C66.7333 11.6053 66.6906 11.7067 66.6053 11.792C66.5199 11.8773 66.4186 11.92 66.3013 11.92H61.5013V12.928H65.9493C66.0666 12.928 66.1679 12.9707 66.2533 13.056C66.3386 13.1413 66.3813 13.2427 66.3813 13.36V15.44C66.3813 15.5573 66.3386 15.6587 66.2533 15.744C66.1679 15.8293 66.0666 15.872 65.9493 15.872H61.5013V16.88H66.4293C66.5466 16.88 66.6479 16.9227 66.7333 17.008C66.8186 17.0933 66.8613 17.1947 66.8613 17.312V19.568C66.8613 19.6853 66.8186 19.7867 66.7333 19.872C66.6479 19.9573 66.5466 20 66.4293 20H58.0933ZM73.327 20.16C71.7163 20.16 70.4363 19.808 69.487 19.104C68.5377 18.3893 68.031 17.296 67.967 15.824C67.9563 15.536 67.951 15.0667 67.951 14.416C67.951 13.7547 67.9563 13.2747 67.967 12.976C68.031 11.5467 68.5483 10.4693 69.519 9.744C70.4897 9.008 71.759 8.64 73.327 8.64C74.287 8.64 75.167 8.784 75.967 9.072C76.7777 9.36 77.4337 9.81333 77.935 10.432C78.447 11.04 78.7083 11.808 78.719 12.736C78.719 12.832 78.6817 12.9173 78.607 12.992C78.543 13.056 78.463 13.088 78.367 13.088H75.103C74.9323 13.088 74.8043 13.056 74.719 12.992C74.6443 12.928 74.575 12.8053 74.511 12.624C74.3937 12.304 74.239 12.08 74.047 11.952C73.855 11.824 73.6097 11.76 73.311 11.76C72.9377 11.76 72.6497 11.8613 72.447 12.064C72.2443 12.256 72.1377 12.5867 72.127 13.056C72.1163 13.344 72.111 13.7867 72.111 14.384C72.111 14.9813 72.1163 15.4347 72.127 15.744C72.1377 16.2133 72.2443 16.5493 72.447 16.752C72.6497 16.944 72.9377 17.04 73.311 17.04C73.919 17.04 74.319 16.752 74.511 16.176C74.5643 15.9947 74.6283 15.872 74.703 15.808C74.7883 15.744 74.9217 15.712 75.103 15.712H78.367C78.463 15.712 78.543 15.7493 78.607 15.824C78.6817 15.888 78.719 15.968 78.719 16.064C78.7083 16.992 78.447 17.7653 77.935 18.384C77.4337 18.992 76.7777 19.44 75.967 19.728C75.167 20.016 74.287 20.16 73.327 20.16ZM80.4214 20C80.304 20 80.2027 19.9627 80.1174 19.888C80.032 19.8027 79.9894 19.696 79.9894 19.568V9.232C79.9894 9.11467 80.032 9.01333 80.1174 8.928C80.2027 8.84267 80.304 8.8 80.4214 8.8H83.5574C83.6747 8.8 83.776 8.84267 83.8614 8.928C83.9467 9.01333 83.9894 9.11467 83.9894 9.232V12.592H86.5814V9.232C86.5814 9.11467 86.624 9.01333 86.7094 8.928C86.7947 8.84267 86.896 8.8 87.0134 8.8H90.1494C90.2667 8.8 90.368 8.84267 90.4534 8.928C90.5387 9.01333 90.5814 9.11467 90.5814 9.232V19.568C90.5814 19.6853 90.5387 19.7867 90.4534 19.872C90.368 19.9573 90.2667 20 90.1494 20H87.0134C86.896 20 86.7947 19.9573 86.7094 19.872C86.624 19.7867 86.5814 19.6853 86.5814 19.568V16.112H83.9894V19.568C83.9894 19.6853 83.9467 19.7867 83.8614 19.872C83.776 19.9573 83.6747 20 83.5574 20H80.4214ZM92.7808 20C92.6634 20 92.5621 19.9573 92.4768 19.872C92.3914 19.7867 92.3488 19.6853 92.3488 19.568V9.232C92.3488 9.11467 92.3914 9.01333 92.4768 8.928C92.5621 8.84267 92.6634 8.8 92.7808 8.8H95.3088C95.6074 8.8 95.8261 8.92267 95.9648 9.168L98.6688 13.6V9.232C98.6688 9.11467 98.7114 9.01333 98.7968 8.928C98.8821 8.84267 98.9834 8.8 99.1008 8.8H101.997C102.114 8.8 102.215 8.84267 102.301 8.928C102.386 9.01333 102.429 9.11467 102.429 9.232V19.568C102.429 19.6853 102.386 19.7867 102.301 19.872C102.215 19.9573 102.114 20 101.997 20H99.4688C99.2874 20 99.1488 19.9627 99.0528 19.888C98.9568 19.8133 98.8768 19.728 98.8128 19.632L96.1088 15.552V19.568C96.1088 19.6853 96.0661 19.7867 95.9808 19.872C95.8954 19.9573 95.7941 20 95.6768 20H92.7808ZM109.249 20.16C107.649 20.16 106.374 19.792 105.424 19.056C104.475 18.32 103.969 17.248 103.905 15.84C103.894 15.552 103.889 15.088 103.889 14.448C103.889 13.7973 103.894 13.3227 103.905 13.024C103.937 12.1067 104.177 11.3173 104.625 10.656C105.083 9.99467 105.707 9.49333 106.497 9.152C107.286 8.81067 108.203 8.64 109.249 8.64C110.294 8.64 111.211 8.81067 112.001 9.152C112.79 9.49333 113.409 9.99467 113.857 10.656C114.315 11.3173 114.561 12.1067 114.593 13.024C114.614 13.6213 114.625 14.096 114.625 14.448C114.625 14.8 114.614 15.264 114.593 15.84C114.529 17.248 114.022 18.32 113.073 19.056C112.123 19.792 110.849 20.16 109.249 20.16ZM109.249 17.04C109.611 17.04 109.894 16.9333 110.097 16.72C110.31 16.5067 110.422 16.1813 110.433 15.744C110.454 15.1253 110.465 14.672 110.465 14.384C110.465 14.0747 110.454 13.632 110.433 13.056C110.422 12.6187 110.31 12.2933 110.097 12.08C109.883 11.8667 109.601 11.76 109.249 11.76C108.897 11.76 108.614 11.8667 108.401 12.08C108.187 12.2933 108.075 12.6187 108.065 13.056C108.054 13.344 108.049 13.7867 108.049 14.384C108.049 14.9813 108.054 15.4347 108.065 15.744C108.075 16.1813 108.182 16.5067 108.385 16.72C108.598 16.9333 108.886 17.04 109.249 17.04Z" fill="black"/>
<path d="M60.136 36.16C59.1867 36.16 58.3707 36.016 57.688 35.728C57.0053 35.44 56.488 35.0613 56.136 34.592C55.784 34.1227 55.5973 33.616 55.576 33.072C55.576 32.976 55.608 32.896 55.672 32.832C55.736 32.768 55.816 32.736 55.912 32.736H57.336C57.464 32.736 57.56 32.7627 57.624 32.816C57.6987 32.8587 57.768 32.9333 57.832 33.04C57.9387 33.4027 58.184 33.7067 58.568 33.952C58.952 34.1973 59.4747 34.32 60.136 34.32C60.8933 34.32 61.464 34.1973 61.848 33.952C62.232 33.696 62.424 33.344 62.424 32.896C62.424 32.5973 62.3227 32.352 62.12 32.16C61.928 31.968 61.6347 31.8027 61.24 31.664C60.856 31.5253 60.28 31.3547 59.512 31.152C58.2533 30.8533 57.3307 30.4587 56.744 29.968C56.168 29.4667 55.88 28.7573 55.88 27.84C55.88 27.2213 56.0453 26.672 56.376 26.192C56.7173 25.712 57.2027 25.3333 57.832 25.056C58.472 24.7787 59.2133 24.64 60.056 24.64C60.9307 24.64 61.688 24.7947 62.328 25.104C62.968 25.4133 63.4533 25.8027 63.784 26.272C64.1253 26.7307 64.3067 27.1893 64.328 27.648C64.328 27.744 64.296 27.824 64.232 27.888C64.168 27.952 64.088 27.984 63.992 27.984H62.504C62.28 27.984 62.1253 27.8827 62.04 27.68C61.976 27.3387 61.7627 27.056 61.4 26.832C61.0373 26.5973 60.5893 26.48 60.056 26.48C59.4587 26.48 58.9893 26.592 58.648 26.816C58.3067 27.04 58.136 27.3653 58.136 27.792C58.136 28.0907 58.2213 28.336 58.392 28.528C58.5627 28.72 58.8293 28.8907 59.192 29.04C59.5653 29.1893 60.0987 29.3547 60.792 29.536C61.7307 29.7493 62.4773 29.9893 63.032 30.256C63.5973 30.5227 64.0133 30.8587 64.28 31.264C64.5467 31.6693 64.68 32.1867 64.68 32.816C64.68 33.4987 64.488 34.096 64.104 34.608C63.7307 35.1093 63.1973 35.4933 62.504 35.76C61.8213 36.0267 61.032 36.16 60.136 36.16ZM69.2366 36C69.13 36 69.0393 35.9627 68.9646 35.888C68.89 35.8133 68.8526 35.7227 68.8526 35.616V26.768H65.8926C65.786 26.768 65.6953 26.7307 65.6206 26.656C65.546 26.5813 65.5086 26.4907 65.5086 26.384V25.2C65.5086 25.0827 65.5406 24.9867 65.6046 24.912C65.6793 24.8373 65.7753 24.8 65.8926 24.8H74.0526C74.17 24.8 74.266 24.8373 74.3406 24.912C74.4153 24.9867 74.4526 25.0827 74.4526 25.2V26.384C74.4526 26.4907 74.4153 26.5813 74.3406 26.656C74.266 26.7307 74.17 26.768 74.0526 26.768H71.1086V35.616C71.1086 35.7227 71.0713 35.8133 70.9966 35.888C70.922 35.9627 70.826 36 70.7086 36H69.2366ZM80.177 36.16C78.7263 36.16 77.5957 35.792 76.785 35.056C75.9743 34.32 75.5477 33.2267 75.505 31.776C75.4943 31.4667 75.489 31.0133 75.489 30.416C75.489 29.808 75.4943 29.3493 75.505 29.04C75.5477 27.6213 75.985 26.5333 76.817 25.776C77.649 25.0187 78.769 24.64 80.177 24.64C81.585 24.64 82.705 25.0187 83.537 25.776C84.3797 26.5333 84.8223 27.6213 84.865 29.04C84.8863 29.6587 84.897 30.1173 84.897 30.416C84.897 30.704 84.8863 31.1573 84.865 31.776C84.8117 33.2267 84.3797 34.32 83.569 35.056C82.7583 35.792 81.6277 36.16 80.177 36.16ZM80.177 34.32C80.8917 34.32 81.4623 34.1067 81.889 33.68C82.3157 33.2427 82.545 32.5813 82.577 31.696C82.5983 31.056 82.609 30.624 82.609 30.4C82.609 30.1547 82.5983 29.7227 82.577 29.104C82.545 28.2187 82.3157 27.5627 81.889 27.136C81.4623 26.6987 80.8917 26.48 80.177 26.48C79.473 26.48 78.9077 26.6987 78.481 27.136C78.0543 27.5627 77.825 28.2187 77.793 29.104C77.7823 29.4133 77.777 29.8453 77.777 30.4C77.777 30.944 77.7823 31.376 77.793 31.696C77.825 32.5813 78.049 33.2427 78.465 33.68C78.8917 34.1067 79.4623 34.32 80.177 34.32ZM87.382 36C87.2753 36 87.1847 35.9627 87.11 35.888C87.0353 35.8133 86.998 35.7227 86.998 35.616V25.2C86.998 25.0827 87.03 24.9867 87.094 24.912C87.1687 24.8373 87.2647 24.8 87.382 24.8H91.526C92.8273 24.8 93.846 25.104 94.582 25.712C95.3287 26.32 95.702 27.184 95.702 28.304C95.702 29.0827 95.51 29.7387 95.126 30.272C94.7527 30.7947 94.23 31.1733 93.558 31.408L95.894 35.488C95.926 35.552 95.942 35.6107 95.942 35.664C95.942 35.76 95.9047 35.84 95.83 35.904C95.766 35.968 95.6913 36 95.606 36H94.15C93.9793 36 93.846 35.9627 93.75 35.888C93.6647 35.8133 93.5847 35.7067 93.51 35.568L91.446 31.776H89.222V35.616C89.222 35.7227 89.1847 35.8133 89.11 35.888C89.046 35.9627 88.9553 36 88.838 36H87.382ZM91.478 29.968C92.118 29.968 92.598 29.824 92.918 29.536C93.2487 29.248 93.414 28.832 93.414 28.288C93.414 27.744 93.2487 27.3227 92.918 27.024C92.598 26.7253 92.118 26.576 91.478 26.576H89.222V29.968H91.478ZM98.1476 36C98.041 36 97.9503 35.9627 97.8756 35.888C97.801 35.8133 97.7636 35.7227 97.7636 35.616V25.2C97.7636 25.0827 97.7956 24.9867 97.8596 24.912C97.9343 24.8373 98.0303 24.8 98.1476 24.8H105.188C105.305 24.8 105.401 24.8373 105.476 24.912C105.55 24.9867 105.588 25.0827 105.588 25.2V26.256C105.588 26.3733 105.55 26.4693 105.476 26.544C105.401 26.608 105.305 26.64 105.188 26.64H99.9236V29.472H104.836C104.953 29.472 105.049 29.5093 105.124 29.584C105.198 29.648 105.236 29.7387 105.236 29.856V30.848C105.236 30.9653 105.198 31.0613 105.124 31.136C105.049 31.2 104.953 31.232 104.836 31.232H99.9236V34.16H105.316C105.433 34.16 105.529 34.1973 105.604 34.272C105.678 34.3467 105.716 34.4427 105.716 34.56V35.616C105.716 35.7333 105.678 35.8293 105.604 35.904C105.529 35.968 105.433 36 105.316 36H98.1476Z" fill="black"/>
<defs>
<linearGradient id="paint0_linear" x1="39.2249" y1="41.2936" x2="7.57938" y2="5.06254" gradientUnits="userSpaceOnUse">
<stop stop-color="#004790"/>
<stop offset="1" stop-color="#1297E0"/>
</linearGradient>
<linearGradient id="paint1_linear" x1="8.62309" y1="28.7852" x2="2.11549" y2="30.6133" gradientUnits="userSpaceOnUse">
<stop stop-color="#004790"/>
<stop offset="1" stop-color="#29C5FF"/>
</linearGradient>
<linearGradient id="paint2_linear" x1="-110331" y1="-51034.7" x2="-104318" y2="-51682.6" gradientUnits="userSpaceOnUse">
<stop stop-color="#004790"/>
<stop offset="1" stop-color="#1297E0"/>
</linearGradient>
</defs>
</svg>
